<svg xmlns="http://www.w3.org/2000/svg" width="512" height="512" viewBox="0 0 512 512">
  <defs>
    <linearGradient id="g" x1="84" y1="72" x2="424" y2="436" gradientUnits="userSpaceOnUse">
      <stop stop-color="#AAB3FF"/>
      <stop offset=".48" stop-color="#7282FF"/>
      <stop offset="1" stop-color="#46E8C3"/>
    </linearGradient>
  </defs>
  <rect width="512" height="512" rx="116" fill="#101626"/>
  <rect x="54" y="54" width="404" height="404" rx="88" fill="url(#g)"/>
  <path d="M137 338V222c0-15 12-27 27-27h28c15 0 27 12 27 27v116c0 15-12 27-27 27h-28c-15 0-27-12-27-27Zm78 0V156c0-15 12-27 27-27h28c15 0 27 12 27 27v182c0 15-12 27-27 27h-28c-15 0-27-12-27-27Zm78 0V260c0-15 12-27 27-27h28c15 0 27 12 27 27v78c0 15-12 27-27 27h-28c-15 0-27-12-27-27Z" fill="#101626"/>
</svg>
